# xmcd CD database file
#
# Track frame offsets:
#	150
#	15400
#	28187
#	37657
#	70617
#	96267
#	103875
#	140332
#	149547
#	159807
#	170027
#	219437
#
# Disc length: 3086 seconds
#
# Revision: 2
# Processed by: cddbd v1.5.2PL0 Copyright (c) Steve Scherf et al.
# Submitted via: CDex 1.40Release
#
DISCID=9c0c0c0c
DTITLE=Canned Heat - On The Road Again
DYEAR=1900
DGENRE=Rock
TTITLE0=On The Road Again
TTITLE1=Same All Over
TTITLE2=Rolling and Tumbling
TTITLE3=Bull Frog Blues
TTITLE4=Dust My Broom
TTITLE5=Pretty Thing
TTITLE6=(Wish You Would) Strut My Stuff
TTITLE7=Big Road Blues
TTITLE8=Spoonful
TTITLE9=I Got My Eyes On You
TTITLE10=Sweet Sixteen
TTITLE11=Got My Mojo Working
EXTD=ID3G: 17
EXTT0=
EXTT1=
EXTT2=
EXTT3=
EXTT4=
EXTT5=
EXTT6=
EXTT7=
EXTT8=
EXTT9=
EXTT10=
EXTT11=
PLAYORDER=
